<svg xmlns="http://www.w3.org/2000/svg" xmlns:xlink="http://www.w3.org/1999/xlink" width="378" zoomAndPan="magnify" viewBox="0 0 282.96 425.249987" height="567" preserveAspectRatio="xMidYMid meet" version="1.0"><defs><clipPath id="c93f1d01b3"><path d="M 0.230469 0 L 282.691406 0 L 282.691406 424.5 L 0.230469 424.5 Z M 0.230469 0 " clip-rule="nonzero"/></clipPath><clipPath id="2ac255195e"><path d="M 15.488281 130.851562 L 267.789062 130.851562 L 267.789062 293.238281 L 15.488281 293.238281 Z M 15.488281 130.851562 " clip-rule="nonzero"/></clipPath></defs><g clip-path="url(#c93f1d01b3)"><path fill="#ffffff" d="M 0.230469 0 L 283.230469 0 L 283.230469 424.5 L 0.230469 424.5 Z M 0.230469 0 " fill-opacity="1" fill-rule="nonzero"/><path fill="#ffffff" d="M 0.230469 0 L 283.230469 0 L 283.230469 424.5 L 0.230469 424.5 Z M 0.230469 0 " fill-opacity="1" fill-rule="nonzero"/></g><path fill="#ffe7e3" d="M 251.15625 291.765625 L 32.121094 291.765625 C 23.785156 291.765625 16.964844 284.953125 16.964844 276.632812 L 16.964844 147.457031 C 16.964844 139.132812 23.785156 132.324219 32.121094 132.324219 L 251.15625 132.324219 C 259.496094 132.324219 266.316406 139.132812 266.316406 147.457031 L 266.316406 276.632812 C 266.316406 284.953125 259.496094 291.765625 251.15625 291.765625 " fill-opacity="1" fill-rule="nonzero"/><g clip-path="url(#2ac255195e)"><path fill="#681307" d="M 32.121094 133.796875 C 24.578125 133.796875 18.4375 139.925781 18.4375 147.457031 L 18.4375 276.632812 C 18.4375 284.164062 24.578125 290.292969 32.121094 290.292969 L 251.15625 290.292969 C 258.703125 290.292969 264.839844 284.164062 264.839844 276.632812 L 264.839844 147.457031 C 264.839844 139.925781 258.703125 133.796875 251.15625 133.796875 Z M 251.15625 293.238281 L 32.121094 293.238281 C 22.949219 293.238281 15.488281 285.789062 15.488281 276.632812 L 15.488281 147.457031 C 15.488281 138.300781 22.949219 130.851562 32.121094 130.851562 L 251.15625 130.851562 C 260.328125 130.851562 267.789062 138.300781 267.789062 147.457031 L 267.789062 276.632812 C 267.789062 285.789062 260.328125 293.238281 251.15625 293.238281 " fill-opacity="1" fill-rule="nonzero"/></g><path fill="#681307" d="M 132.4375 217.578125 L 17.175781 150.210938 L 18.667969 147.671875 L 133.929688 215.035156 L 132.4375 217.578125 " fill-opacity="1" fill-rule="nonzero"/><path fill="#681307" d="M 150.839844 217.578125 L 149.347656 215.035156 L 264.613281 147.671875 L 266.101562 150.210938 L 150.839844 217.578125 " fill-opacity="1" fill-rule="nonzero"/><path fill="#e87367" d="M 165.699219 204.332031 C 165.609375 199.847656 162.183594 192.117188 154.011719 191.644531 C 144.722656 191.105469 141.640625 200.125 141.640625 200.125 C 141.640625 200.125 138.554688 191.105469 129.269531 191.644531 C 121.09375 192.117188 117.671875 199.847656 117.578125 204.332031 C 117.546875 206.003906 116.820312 214.367188 125.207031 222.96875 C 132.007812 229.945312 141.640625 234.605469 141.640625 234.605469 C 141.640625 234.605469 151.269531 229.945312 158.070312 222.96875 C 166.457031 214.367188 165.734375 206.003906 165.699219 204.332031 " fill-opacity="1" fill-rule="nonzero"/><path fill="#681307" d="M 130.050781 193.09375 C 129.824219 193.09375 129.589844 193.097656 129.355469 193.113281 C 121.8125 193.550781 119.125 201.023438 119.054688 204.363281 C 119.054688 204.449219 119.050781 204.550781 119.046875 204.671875 C 118.832031 210.996094 121.261719 216.808594 126.265625 221.941406 C 131.804688 227.625 139.402344 231.792969 141.640625 232.953125 C 143.875 231.792969 151.472656 227.625 157.015625 221.941406 C 162.019531 216.808594 164.449219 210.996094 164.234375 204.671875 C 164.230469 204.550781 164.226562 204.449219 164.222656 204.363281 C 164.15625 201.023438 161.46875 193.550781 153.925781 193.113281 C 145.902344 192.644531 143.148438 200.28125 143.035156 200.605469 C 142.828125 201.195312 142.269531 201.59375 141.640625 201.59375 C 141.640625 201.59375 141.636719 201.59375 141.636719 201.59375 C 141.007812 201.59375 140.445312 201.195312 140.242188 200.601562 C 140.132812 200.289062 137.539062 193.09375 130.050781 193.09375 Z M 141.640625 236.078125 C 141.417969 236.078125 141.199219 236.03125 140.996094 235.933594 C 140.59375 235.738281 131.054688 231.078125 124.148438 223.996094 C 118.5625 218.265625 115.855469 211.730469 116.097656 204.570312 L 116.105469 204.304688 C 116.21875 198.742188 120.351562 190.683594 129.183594 190.171875 C 135.472656 189.808594 139.535156 193.492188 141.640625 196.808594 C 143.742188 193.492188 147.8125 189.808594 154.097656 190.171875 C 162.925781 190.683594 167.058594 198.742188 167.175781 204.304688 L 167.183594 204.570312 C 167.425781 211.730469 164.714844 218.265625 159.128906 223.996094 C 152.226562 231.078125 142.683594 235.738281 142.28125 235.933594 C 142.078125 236.03125 141.859375 236.078125 141.640625 236.078125 " fill-opacity="1" fill-rule="nonzero"/><path fill="#681307" d="M 248.234375 279.253906 L 149.550781 279.253906 C 148.734375 279.253906 148.074219 278.59375 148.074219 277.78125 C 148.074219 276.96875 148.734375 276.308594 149.550781 276.308594 L 248.234375 276.308594 C 249.050781 276.308594 249.710938 276.96875 249.710938 277.78125 C 249.710938 278.59375 249.050781 279.253906 248.234375 279.253906 " fill-opacity="1" fill-rule="nonzero"/><path fill="#681307" d="M 248.234375 265.339844 L 196.632812 265.339844 C 195.816406 265.339844 195.15625 264.679688 195.15625 263.867188 C 195.15625 263.054688 195.816406 262.394531 196.632812 262.394531 L 248.234375 262.394531 C 249.050781 262.394531 249.710938 263.054688 249.710938 263.867188 C 249.710938 264.679688 249.050781 265.339844 248.234375 265.339844 " fill-opacity="1" fill-rule="nonzero"/></svg>