<svg xmlns="http://www.w3.org/2000/svg" xmlns:xlink="http://www.w3.org/1999/xlink" width="378" zoomAndPan="magnify" viewBox="0 0 282.96 425.249987" height="567" preserveAspectRatio="xMidYMid meet" version="1.0"><defs><clipPath id="e395daa23d"><path d="M 0.230469 0 L 282.691406 0 L 282.691406 424.5 L 0.230469 424.5 Z M 0.230469 0 " clip-rule="nonzero"/></clipPath><clipPath id="87753c4f90"><path d="M 34.160156 38.054688 L 249.03125 38.054688 L 249.03125 386.191406 L 34.160156 386.191406 Z M 34.160156 38.054688 " clip-rule="nonzero"/></clipPath></defs><g clip-path="url(#e395daa23d)"><path fill="#ffffff" d="M 0.230469 0 L 283.230469 0 L 283.230469 424.5 L 0.230469 424.5 Z M 0.230469 0 " fill-opacity="1" fill-rule="nonzero"/><path fill="#ffffff" d="M 0.230469 0 L 283.230469 0 L 283.230469 424.5 L 0.230469 424.5 Z M 0.230469 0 " fill-opacity="1" fill-rule="nonzero"/></g><g clip-path="url(#87753c4f90)"><path fill="#e87367" d="M 140.988281 38.015625 C 140.988281 43.425781 142.0625 174.613281 144.011719 179.320312 C 147.433594 187.589844 153.546875 194.46875 161.253906 198.855469 C 167.085938 202.175781 241.871094 204.742188 249.054688 204.742188 C 242.296875 204.742188 167.890625 205.753906 162.304688 208.714844 C 160.078125 209.898438 157.976562 211.28125 156.023438 212.84375 C 151.597656 216.390625 147.9375 220.855469 145.335938 225.953125 C 144.945312 226.722656 143.605469 230.347656 143.261719 236.035156 C 141.175781 270.546875 140.988281 380.703125 140.988281 386.3125 C 140.988281 380.789062 140.855469 269.445312 138.828125 236.082031 C 138.515625 230.921875 137.191406 227.066406 136.835938 226.347656 C 134.210938 221.0625 130.453125 216.433594 125.878906 212.789062 C 123.4375 210.84375 120.765625 209.175781 117.910156 207.839844 C 112.761719 205.425781 40.40625 204.679688 34.347656 204.679688 C 40.566406 204.679688 113.066406 202.652344 118.320312 200.117188 C 127.203125 195.828125 134.269531 188.355469 138.023438 179.179688 C 139.933594 174.507812 140.988281 43.371094 140.988281 38.015625 Z M 140.988281 38.015625 " fill-opacity="1" fill-rule="evenodd"/><path fill="#e87367" d="M 140.988281 38.015625 C 140.988281 43.425781 142.0625 174.613281 144.011719 179.320312 C 147.433594 187.589844 153.546875 194.46875 161.253906 198.855469 C 167.085938 202.175781 241.871094 204.742188 249.054688 204.742188 C 242.296875 204.742188 167.890625 205.753906 162.304688 208.714844 C 160.078125 209.898438 157.976562 211.28125 156.023438 212.84375 C 151.597656 216.390625 147.9375 220.855469 145.335938 225.953125 C 144.945312 226.722656 143.605469 230.347656 143.261719 236.035156 C 141.175781 270.546875 140.988281 380.703125 140.988281 386.3125 C 140.988281 380.789062 140.855469 269.445312 138.828125 236.082031 C 138.515625 230.921875 137.191406 227.066406 136.835938 226.347656 C 134.210938 221.0625 130.453125 216.433594 125.878906 212.789062 C 123.4375 210.84375 120.765625 209.175781 117.910156 207.839844 C 112.761719 205.425781 40.40625 204.679688 34.347656 204.679688 C 40.566406 204.679688 113.066406 202.652344 118.320312 200.117188 C 127.203125 195.828125 134.269531 188.355469 138.023438 179.179688 C 139.933594 174.507812 140.988281 43.371094 140.988281 38.015625 Z M 140.996094 114.363281 C 141.289062 132.941406 141.65625 151 142.089844 163.367188 C 142.316406 169.71875 142.558594 174.578125 142.816406 177.246094 C 142.941406 178.515625 143.089844 179.335938 143.21875 179.648438 C 146.714844 188.09375 152.957031 195.117188 160.832031 199.601562 C 162.035156 200.289062 166.078125 200.988281 171.847656 201.597656 C 182.90625 202.761719 200.480469 203.753906 216.125 204.460938 C 200.757812 204.84375 183.578125 205.441406 172.753906 206.3125 C 167.042969 206.769531 163.054688 207.347656 161.902344 207.957031 C 159.628906 209.164062 157.484375 210.578125 155.488281 212.175781 C 150.96875 215.796875 147.230469 220.359375 144.574219 225.5625 C 144.167969 226.359375 142.761719 230.101562 142.40625 235.984375 C 141.800781 246.039062 141.351562 262.519531 141.023438 280.964844 C 140.710938 262.363281 140.277344 245.832031 139.683594 236.03125 C 139.359375 230.691406 137.972656 226.707031 137.605469 225.96875 C 134.925781 220.566406 131.085938 215.839844 126.414062 212.117188 C 123.921875 210.128906 121.191406 208.429688 118.273438 207.0625 C 117.214844 206.5625 113.386719 206.09375 107.882812 205.726562 C 98.871094 205.125 85.253906 204.695312 72.148438 204.394531 C 85.371094 203.867188 99.136719 203.191406 108.238281 202.421875 C 113.761719 201.953125 117.609375 201.410156 118.691406 200.890625 C 127.765625 196.507812 134.980469 188.875 138.816406 179.503906 C 138.945312 179.191406 139.089844 178.375 139.210938 177.109375 C 139.464844 174.445312 139.703125 169.597656 139.921875 163.25 C 140.347656 150.910156 140.707031 132.898438 140.996094 114.363281 Z M 140.996094 114.363281 " fill-opacity="1" fill-rule="evenodd"/></g></svg>