<svg xmlns="http://www.w3.org/2000/svg" xmlns:xlink="http://www.w3.org/1999/xlink" width="378" zoomAndPan="magnify" viewBox="0 0 283.5 425.249985" height="567" preserveAspectRatio="xMidYMid meet" version="1.0"><defs><clipPath id="e2ea437fc1"><path d="M 0 0 L 283 0 L 283 424.5 L 0 424.5 Z M 0 0 " clip-rule="nonzero"/></clipPath><clipPath id="6375af8a26"><path d="M 0 0 L 283 0 L 283 424.5 L 0 424.5 Z M 0 0 " clip-rule="nonzero"/></clipPath><clipPath id="9c72a89dd2"><rect x="0" width="283" y="0" height="425"/></clipPath></defs><g clip-path="url(#e2ea437fc1)"><path fill="#ffffff" d="M 0 0 L 283 0 L 283 424.5 L 0 424.5 Z M 0 0 " fill-opacity="1" fill-rule="nonzero"/><g transform="matrix(1, 0, 0, 1, -0, 0)"><g clip-path="url(#9c72a89dd2)"><g clip-path="url(#6375af8a26)"><path fill="#ffffff" d="M 0 0 L 283.035156 0 L 283.035156 424.554688 L 0 424.554688 Z M 0 0 " fill-opacity="1" fill-rule="nonzero"/></g><path fill="#ffffff" d="M 140.644531 395.605469 L 137.5 394.0625 C 96.183594 373.839844 60.570312 345.859375 34.511719 313.148438 C 18.273438 292.75 8.582031 273.792969 4.878906 255.191406 C -0.015625 230.597656 6.121094 206.265625 21.71875 188.445312 C 27.570312 181.761719 34.875 175.988281 43.195312 171.429688 L 43.195312 134.398438 C 43.195312 75.265625 87.503906 27.160156 141.964844 27.160156 C 196.421875 27.160156 240.726562 75.265625 240.726562 134.398438 L 240.726562 169.871094 C 247.347656 173.785156 253.316406 178.453125 258.308594 183.664062 C 274.414062 200.453125 282.273438 223.144531 280.441406 247.550781 C 278.191406 277.570312 261.820312 309.636719 235.527344 335.527344 C 211.714844 358.984375 182.65625 377.027344 154.9375 393.5 L 150.917969 395.890625 Z M 98.019531 161.289062 C 111.332031 163.347656 123.960938 169.328125 134.675781 178.667969 C 136.820312 180.535156 138.859375 182.519531 140.78125 184.597656 C 150.820312 171.84375 165.191406 160.53125 183.230469 157.867188 L 184.402344 157.695312 L 184.515625 157.695312 C 184.621094 157.679688 184.730469 157.667969 184.835938 157.65625 C 185.191406 157.613281 185.546875 157.574219 185.90625 157.539062 L 185.90625 134.398438 C 185.90625 105.453125 166.195312 81.90625 141.964844 81.90625 C 117.734375 81.90625 98.019531 105.453125 98.019531 134.398438 Z M 98.019531 161.289062 " fill-opacity="1" fill-rule="nonzero"/><path fill="#e6b2b6" d="M 246.660156 194.796875 C 240.765625 188.648438 233.140625 183.4375 224.601562 179.667969 L 224.601562 134.398438 C 224.601562 84.148438 187.53125 43.261719 141.964844 43.261719 C 96.398438 43.261719 59.320312 84.148438 59.320312 134.398438 L 59.320312 181.628906 C 49.214844 185.613281 40.292969 191.695312 33.859375 199.042969 C 20.609375 214.179688 17.058594 233.785156 20.695312 252.054688 C 24.332031 270.335938 34.644531 287.441406 47.132812 303.125 C 71.742188 334.019531 105.371094 360.40625 144.597656 379.605469 L 146.691406 379.664062 C 174.546875 363.113281 202.105469 345.832031 224.210938 324.0625 C 246.3125 302.300781 262.265625 274.328125 264.363281 246.351562 C 265.722656 228.230469 260.578125 209.308594 246.660156 194.796875 Z M 149.207031 269.140625 L 149.207031 306.484375 C 149.207031 309.628906 146.464844 312.171875 143.082031 312.171875 C 139.695312 312.171875 136.953125 309.628906 136.953125 306.484375 L 136.953125 269.140625 C 130.957031 266.824219 126.808594 261.195312 127.171875 254.707031 C 127.589844 247.070312 134.375 240.914062 142.605469 240.6875 C 151.621094 240.441406 159.011719 247.160156 159.011719 255.480469 C 159.011719 261.640625 154.96875 266.914062 149.207031 269.140625 Z M 186.667969 173.652344 C 186.3125 173.691406 185.964844 173.742188 185.609375 173.792969 L 185.589844 173.792969 C 163.472656 177.058594 146.660156 199.996094 141.515625 216.375 C 135.375 197.871094 117.011719 179.808594 93.9375 176.976562 C 91.195312 176.640625 88.449219 176.488281 85.707031 176.5 L 85.628906 176.5 C 84.382812 176.503906 83.132812 176.542969 81.894531 176.617188 L 81.894531 134.398438 C 81.894531 96.570312 108.839844 65.804688 141.964844 65.804688 C 175.082031 65.804688 202.03125 96.570312 202.03125 134.398438 L 202.03125 173.609375 C 196.945312 173.0625 191.789062 173.046875 186.667969 173.652344 Z M 186.667969 173.652344 " fill-opacity="1" fill-rule="nonzero"/><path fill="#e6b2b6" d="M 85.628906 176.5 C 83.234375 176.578125 81.894531 176.617188 81.894531 176.617188 C 83.132812 176.546875 84.382812 176.507812 85.628906 176.5 Z M 85.628906 176.5 " fill-opacity="1" fill-rule="nonzero"/><path fill="#d57084" d="M 224.601562 134.398438 L 224.601562 179.667969 C 224.601562 179.667969 213.554688 173.898438 202.027344 173.609375 L 202.027344 134.398438 C 202.027344 96.570312 175.082031 65.804688 141.964844 65.804688 C 108.839844 65.804688 81.894531 96.570312 81.894531 134.398438 L 81.894531 176.617188 C 81.894531 176.617188 72.445312 176.507812 59.320312 181.628906 L 59.320312 134.398438 C 59.320312 84.148438 96.398438 43.261719 141.964844 43.261719 C 187.53125 43.261719 224.601562 84.148438 224.601562 134.398438 Z M 224.601562 134.398438 " fill-opacity="1" fill-rule="nonzero"/></g></g></g></svg>